<svg width="80" height="80" viewBox="0 0 80 80" fill="none" xmlns="http://www.w3.org/2000/svg">
<path d="M63.5665 59.0192C62.6859 59.0192 61.9739 58.3054 61.9739 57.4266V49.7035C61.9739 48.8229 62.6877 48.111 63.5665 48.111C64.4452 48.111 65.159 48.8248 65.159 49.7035V57.4266C65.159 58.3072 64.4452 59.0192 63.5665 59.0192Z" fill="#1B115C"/>
<path d="M40 79.9981C29.3166 79.9981 19.2702 75.8368 11.7158 68.2824C4.16132 60.7279 0 50.6834 0 40C0 29.3166 4.16132 19.2702 11.7158 11.7158C19.2702 4.16132 29.3147 0 40 0C62.0563 0 80 17.9437 80 40C80 62.0563 62.0563 80 40 80V79.9981ZM40 3.18703C19.7012 3.18703 3.18703 19.7012 3.18703 40C3.18703 60.2988 19.7012 76.813 40 76.813C60.2988 76.813 76.813 60.2988 76.813 40C76.813 19.7012 60.297 3.18703 40 3.18703Z" fill="#1B115C"/>
<path d="M63.5664 51.2962H16.9563C16.0757 51.2962 15.3637 50.5823 15.3637 49.7036V38.1827C15.3637 37.3021 16.0776 36.5901 16.9563 36.5901H63.5664C64.447 36.5901 65.159 37.3039 65.159 38.1827V49.7036C65.159 50.5842 64.4452 51.2962 63.5664 51.2962ZM18.5489 48.1091H61.9739V39.7734H18.5489V48.1091Z" fill="#1B115C"/>
<path d="M16.9563 59.0192C16.0757 59.0192 15.3637 58.3054 15.3637 57.4266V49.7035C15.3637 48.8229 16.0776 48.111 16.9563 48.111C17.835 48.111 18.5489 48.8248 18.5489 49.7035V57.4266C18.5489 58.3072 17.835 59.0192 16.9563 59.0192Z" fill="#1B115C"/>
<path d="M59.2028 39.7752C58.3222 39.7752 57.6102 39.0614 57.6102 38.1826C57.6102 36.1985 57.2823 34.2518 56.6359 32.3969C56.3474 31.565 56.7858 30.6582 57.6158 30.3678C58.4477 30.0792 59.3545 30.5177 59.6449 31.3477C60.4075 33.5398 60.7953 35.8387 60.7953 38.1808C60.7953 39.0614 60.0815 39.7734 59.2028 39.7734V39.7752Z" fill="#1B115C"/>
<path d="M20.7972 39.7751C19.9166 39.7751 19.2047 39.0613 19.2047 38.1826C19.2047 26.716 28.5334 17.3872 40 17.3872C43.2882 17.3872 46.4321 18.1329 49.3438 19.6018C50.1288 19.999 50.4455 20.9565 50.0482 21.7415C49.651 22.5266 48.6936 22.8432 47.9086 22.446C45.4466 21.2038 42.7842 20.5742 40 20.5742C30.2909 20.5742 22.3898 28.4734 22.3898 38.1844C22.3898 39.065 21.676 39.777 20.7972 39.777V39.7751Z" fill="#1B115C"/>
<path d="M55.3337 33.995C50.2262 33.995 46.0724 29.8412 46.0724 24.7337C46.0724 23.1655 46.4733 21.6141 47.2322 20.2464C48.8641 17.3029 51.9668 15.4742 55.3337 15.4742C60.4393 15.4742 64.595 19.6281 64.595 24.7337C64.595 28.5653 62.2905 31.949 58.725 33.3542C57.6439 33.7796 56.5029 33.995 55.3337 33.995ZM55.3337 18.6613C53.1266 18.6613 51.09 19.8623 50.0201 21.794C49.5217 22.6896 49.2594 23.7051 49.2594 24.7337C49.2594 28.0837 51.9837 30.808 55.3337 30.808C56.1019 30.808 56.8495 30.6675 57.5577 30.3883C59.896 29.4665 61.408 27.2462 61.408 24.7337C61.408 21.3855 58.6837 18.6613 55.3337 18.6613Z" fill="#1B115C"/>
<path d="M58.6707 26.3281H52.3097C51.4291 26.3281 50.7172 25.6143 50.7172 24.7355C50.7172 23.8568 51.431 23.1429 52.3097 23.1429H58.6707C59.5513 23.1429 60.2633 23.8568 60.2633 24.7355C60.2633 25.6143 59.5494 26.3281 58.6707 26.3281Z" fill="#1B115C"/>
<path d="M55.4911 29.3803C54.6105 29.3803 53.8986 28.6664 53.8986 27.7877V21.4942C53.8986 20.6136 54.6124 19.9016 55.4911 19.9016C56.3699 19.9016 57.0837 20.6155 57.0837 21.4942V27.7877C57.0837 28.6683 56.3699 29.3803 55.4911 29.3803Z" fill="#1B115C"/>
</svg>
