<svg width="80" height="80" viewBox="0 0 80 80" fill="none" xmlns="http://www.w3.org/2000/svg">
<path d="M40 80C17.9442 80 0 62.0558 0 40C0 17.9442 17.9442 0 40 0C62.0558 0 80 17.9442 80 40C80 62.0558 62.0558 80 40 80ZM40 3.19159C19.7034 3.19159 3.19159 19.7034 3.19159 40C3.19159 60.2966 19.7034 76.8084 40 76.8084C60.2966 76.8084 76.8084 60.2966 76.8084 40C76.8084 19.7034 60.2966 3.19159 40 3.19159Z" fill="#1B115C"/>
<path d="M39.7522 24.9431C36.1513 24.9431 33.2207 22.0125 33.2207 18.4116C33.2207 14.8108 36.1513 11.8801 39.7522 11.8801C43.3531 11.8801 46.2837 14.8108 46.2837 18.4116C46.2837 22.0125 43.3531 24.9431 39.7522 24.9431ZM39.7522 15.0717C37.9105 15.0717 36.4123 16.5699 36.4123 18.4116C36.4123 20.2534 37.9105 21.7515 39.7522 21.7515C41.5939 21.7515 43.0921 20.2534 43.0921 18.4116C43.0921 16.5699 41.5939 15.0717 39.7522 15.0717Z" fill="#1B115C"/>
<path d="M43.8411 64.6391H36.1607C35.2802 64.6391 34.5649 63.9238 34.5649 63.0433V32.3195C34.5649 31.439 35.2802 30.7238 36.1607 30.7238H43.8411C44.7216 30.7238 45.4369 31.439 45.4369 32.3195V63.0433C45.4369 63.9238 44.7216 64.6391 43.8411 64.6391ZM37.7565 61.4475H42.2453V33.9153H37.7565V61.4475Z" fill="#1B115C"/>
</svg>
