<svg width="80" height="80" viewBox="0 0 80 80" fill="none" xmlns="http://www.w3.org/2000/svg">
<path d="M54.4616 63.9718H25.9172C25.0208 63.9718 24.2933 63.2446 24.2933 62.3488V22.3666C24.2933 21.4707 25.0208 20.7435 25.9172 20.7435H54.4616C55.3579 20.7435 56.0855 21.4707 56.0855 22.3666V62.3488C56.0855 63.2446 55.3579 63.9718 54.4616 63.9718ZM27.5411 60.7257H52.8376V23.9896H27.5411V60.7257Z" fill="#1B115C"/>
<path d="M40 80C17.9438 80 0 62.0565 0 40.0009C0 17.9454 17.9438 0 40 0C62.0562 0 80 17.9435 80 40.0009C80 62.0583 62.0562 80.0019 40 80.0019V80ZM40 3.24611C19.7347 3.24611 3.24786 19.7334 3.24786 40.0009C3.24786 60.2685 19.7347 76.7558 40 76.7558C60.2653 76.7558 76.7521 60.2685 76.7521 40.0009C76.7521 19.7334 60.2653 3.24611 40 3.24611Z" fill="#1B115C"/>
<path d="M25.9172 23.9897C25.2534 23.9897 24.6289 23.5792 24.3908 22.9195C24.0851 22.0761 24.5221 21.1465 25.364 20.841L47.4521 12.8438C47.949 12.6639 48.5041 12.737 48.9372 13.0406C49.3704 13.3442 49.6292 13.8409 49.6292 14.3694V22.2317C49.6292 23.1275 48.9016 23.8547 48.0052 23.8547C47.1089 23.8547 46.3813 23.1275 46.3813 22.2317V16.684L26.4704 23.8922C26.2885 23.9578 26.101 23.9897 25.9172 23.9897Z" fill="#1B115C"/>
<path d="M48.0052 55.9766H32.0041C31.1078 55.9766 30.3802 55.2494 30.3802 54.3535C30.3802 53.4577 31.1078 52.7305 32.0041 52.7305H48.0052C48.9016 52.7305 49.6292 53.4577 49.6292 54.3535C49.6292 55.2494 48.9016 55.9766 48.0052 55.9766Z" fill="#1B115C"/>
<path d="M40 44.0362C37.4441 44.0362 35.5164 40.597 35.5164 36.0352C35.5164 31.4734 37.4441 28.0343 40 28.0343C40.5175 28.0343 40.9376 28.4541 40.9376 28.9714C40.9376 29.4887 40.5175 29.9085 40 29.9085C38.9105 29.9085 37.3916 32.24 37.3916 36.0352C37.3916 39.8305 38.9105 42.162 40 42.162C40.5175 42.162 40.9376 42.5818 40.9376 43.0991C40.9376 43.6164 40.5175 44.0362 40 44.0362Z" fill="#1B115C"/>
<path d="M40 44.0362C39.4824 44.0362 39.0624 43.6164 39.0624 43.0991C39.0624 42.5818 39.4824 42.162 40 42.162C41.0895 42.162 42.6084 39.8305 42.6084 36.0352C42.6084 32.24 41.0895 29.9085 40 29.9085C39.4824 29.9085 39.0624 29.4887 39.0624 28.9714C39.0624 28.4541 39.4824 28.0343 40 28.0343C42.5559 28.0343 44.4836 31.4734 44.4836 36.0352C44.4836 40.597 42.5559 44.0362 40 44.0362Z" fill="#1B115C"/>
<path d="M40 44.0026C39.4824 44.0026 39.0624 43.5828 39.0624 43.0655V28.9378C39.0624 28.4206 39.4824 28.0007 40 28.0007C40.5175 28.0007 40.9376 28.4206 40.9376 28.9378V43.0655C40.9376 43.5828 40.5175 44.0026 40 44.0026Z" fill="#1B115C"/>
<path d="M47.0676 36.9385H32.9323C32.4148 36.9385 31.9947 36.5187 31.9947 36.0014C31.9947 35.4842 32.4148 35.0643 32.9323 35.0643H47.0676C47.5852 35.0643 48.0052 35.4842 48.0052 36.0014C48.0052 36.5187 47.5852 36.9385 47.0676 36.9385Z" fill="#1B115C"/>
<path d="M40 44.0025C35.5857 44.0025 31.9947 40.4134 31.9947 36.0015C31.9947 31.5897 35.5857 28.0006 40 28.0006C44.4142 28.0006 48.0052 31.5897 48.0052 36.0015C48.0052 40.4134 44.4142 44.0025 40 44.0025ZM40 29.8748C36.6209 29.8748 33.8699 32.6224 33.8699 36.0015C33.8699 39.3807 36.619 42.1283 40 42.1283C43.381 42.1283 46.13 39.3807 46.13 36.0015C46.13 32.6224 43.381 29.8748 40 29.8748Z" fill="#1B115C"/>
</svg>
