<svg width="80" height="80" viewBox="0 0 80 80" fill="none" xmlns="http://www.w3.org/2000/svg">
<g clip-path="url(#clip0_1602_447)">
<path d="M39.9991 80C17.9432 80 0 62.0549 0 39.9991C0 17.9432 17.9432 0 39.9991 0C50.6833 0 60.729 4.16134 68.2838 11.7162C75.8387 19.271 80 29.3167 80 40.0009C80 50.6852 75.8387 60.7309 68.2838 68.2857C60.729 75.8405 50.6833 80.0019 39.9991 80.0019V80ZM39.9991 3.18562C19.6999 3.18562 3.18562 19.6999 3.18562 39.9991C3.18562 60.2982 19.6999 76.8144 40.0009 76.8144C60.302 76.8144 76.8163 60.3001 76.8163 39.9991C76.8163 19.698 60.2982 3.18562 39.9991 3.18562Z" fill="#1B115C"/>
<path d="M39.9991 14.8269C39.1189 14.8269 38.4072 14.1134 38.4072 13.235V9.40144C38.4072 8.52123 39.1207 7.80957 39.9991 7.80957C40.8774 7.80957 41.5909 8.5231 41.5909 9.40144V13.235C41.5909 14.1153 40.8774 14.8269 39.9991 14.8269Z" fill="#1B115C"/>
<path d="M39.9991 72.3328C39.1189 72.3328 38.4072 71.6192 38.4072 70.7409V66.9073C38.4072 66.0271 39.1207 65.3154 39.9991 65.3154C40.8774 65.3154 41.5909 66.029 41.5909 66.9073V70.7409C41.5909 71.6211 40.8774 72.3328 39.9991 72.3328Z" fill="#1B115C"/>
<path d="M70.6698 41.6621H66.8362C65.956 41.6621 65.2443 40.9486 65.2443 40.0703C65.2443 39.1919 65.9578 38.4784 66.8362 38.4784H70.6698C71.55 38.4784 72.2616 39.1919 72.2616 40.0703C72.2616 40.9486 71.5481 41.6621 70.6698 41.6621Z" fill="#1B115C"/>
<path d="M13.1638 41.6621H9.33024C8.45003 41.6621 7.73837 40.9486 7.73837 40.0703C7.73837 39.1919 8.45191 38.4784 9.33024 38.4784H13.1638C14.0441 38.4784 14.7557 39.1919 14.7557 40.0703C14.7557 40.9486 14.0422 41.6621 13.1638 41.6621Z" fill="#1B115C"/>
<path d="M61.686 63.349C61.2777 63.349 60.8713 63.1936 60.5604 62.8827L57.8505 60.1728C57.2287 59.551 57.2287 58.5416 57.8505 57.9198C58.4723 57.298 59.4817 57.298 60.1035 57.9198L62.8134 60.6297C63.4352 61.2515 63.4352 62.2609 62.8134 62.8827C62.5025 63.1936 62.0943 63.349 61.6879 63.349H61.686Z" fill="#1B115C"/>
<path d="M21.0239 22.6869C20.6157 22.6869 20.2093 22.5315 19.8984 22.2206L17.1885 19.5107C16.5667 18.8889 16.5667 17.8795 17.1885 17.2577C17.8102 16.6359 18.8197 16.6359 19.4414 17.2577L22.1514 19.9676C22.7731 20.5894 22.7731 21.5988 22.1514 22.2206C21.8405 22.5315 21.4322 22.6869 21.0258 22.6869H21.0239Z" fill="#1B115C"/>
<path d="M58.9761 22.6869C58.5678 22.6869 58.1614 22.5315 57.8505 22.2206C57.2287 21.5988 57.2287 20.5894 57.8505 19.9676L60.5604 17.2577C61.1822 16.6359 62.1916 16.6359 62.8134 17.2577C63.4352 17.8795 63.4352 18.8889 62.8134 19.5107L60.1035 22.2206C59.7926 22.5315 59.3843 22.6869 58.9779 22.6869H58.9761Z" fill="#1B115C"/>
<path d="M18.3121 63.349C17.9039 63.349 17.4975 63.1936 17.1866 62.8827C16.5648 62.2609 16.5648 61.2515 17.1866 60.6297L19.8965 57.9198C20.5183 57.298 21.5277 57.298 22.1495 57.9198C22.7713 58.5416 22.7713 59.551 22.1495 60.1728L19.4396 62.8827C19.1287 63.1936 18.7204 63.349 18.314 63.349H18.3121Z" fill="#1B115C"/>
<path d="M51.4999 41.6621H39.9991C39.1189 41.6621 38.4072 40.9486 38.4072 40.0702V20.1381C38.4072 19.2579 39.1207 18.5463 39.9991 18.5463C40.8774 18.5463 41.5909 19.2598 41.5909 20.1381V38.4765H51.4999C52.3801 38.4765 53.0917 39.19 53.0917 40.0684C53.0917 40.9467 52.3782 41.6602 51.4999 41.6602V41.6621Z" fill="#1B115C"/>
</g>
<defs>
<clipPath id="clip0_1602_447">
<rect width="80" height="80" fill="white"/>
</clipPath>
</defs>
</svg>
