<svg width="80" height="80" viewBox="0 0 80 80" fill="none" xmlns="http://www.w3.org/2000/svg">
<path d="M54.155 51.3454H48.0862C47.2077 51.3454 46.494 50.6317 46.494 49.7533C46.494 48.8748 47.2077 48.1611 48.0862 48.1611H54.155C55.0335 48.1611 55.7471 48.8748 55.7471 49.7533C55.7471 50.6317 55.0335 51.3454 54.155 51.3454Z" fill="#1B115C"/>
<path d="M43.0269 51.3454H36.9562C36.0777 51.3454 35.3641 50.6317 35.3641 49.7533C35.3641 48.8748 36.0777 48.1611 36.9562 48.1611H43.0269C43.9054 48.1611 44.6191 48.8748 44.6191 49.7533C44.6191 50.6317 43.9054 51.3454 43.0269 51.3454Z" fill="#1B115C"/>
<path d="M31.4887 51.3454H25.4198C24.5413 51.3454 23.8277 50.6317 23.8277 49.7533C23.8277 48.8748 24.5413 48.1611 25.4198 48.1611H31.4887C32.3672 48.1611 33.0808 48.8748 33.0808 49.7533C33.0808 50.6317 32.3672 51.3454 31.4887 51.3454Z" fill="#1B115C"/>
<path d="M51.3491 46.3928C48.9216 46.3928 46.9473 44.4205 46.9473 41.9948C46.9473 39.5691 48.9216 37.593 51.3491 37.593C53.7766 37.593 55.7471 39.5673 55.7471 41.9948C55.7471 44.4223 53.7748 46.3928 51.3491 46.3928ZM51.3491 40.7773C50.6785 40.7773 50.1316 41.3224 50.1316 41.9948C50.1316 42.6672 50.6767 43.2086 51.3491 43.2086C52.0216 43.2086 52.5629 42.6635 52.5629 41.9948C52.5629 41.3261 52.0178 40.7773 51.3491 40.7773Z" fill="#1B115C"/>
<path d="M28.8719 46.3928C26.4463 46.3928 24.4739 44.4205 24.4739 41.9948C24.4739 39.5691 26.4463 37.593 28.8719 37.593C31.2976 37.593 33.2737 39.5673 33.2737 41.9948C33.2737 44.4223 31.2995 46.3928 28.8719 46.3928ZM28.8719 40.7773C28.2032 40.7773 27.6582 41.3224 27.6582 41.9948C27.6582 42.6672 28.2032 43.2086 28.8719 43.2086C29.5406 43.2086 30.0895 42.6635 30.0895 41.9948C30.0895 41.3261 29.5444 40.7773 28.8719 40.7773Z" fill="#1B115C"/>
<path d="M56.7736 57.7158H23.2077C21.0086 57.7158 19.218 55.9251 19.218 53.7243V48.931C19.218 48.0525 19.9316 47.3389 20.8101 47.3389C21.6886 47.3389 22.4022 48.0525 22.4022 48.931V53.7243C22.4022 54.1701 22.7637 54.5316 23.2077 54.5316H56.7736C57.2175 54.5316 57.579 54.1701 57.579 53.7243V48.931C57.579 48.0525 58.2926 47.3389 59.1711 47.3389C60.0496 47.3389 60.7633 48.0525 60.7633 48.931V53.7243C60.7633 55.9251 58.9745 57.7158 56.7736 57.7158Z" fill="#1B115C"/>
<path d="M63.7041 36.1527H63.6984L59.1655 36.1358H20.8101L16.0019 36.1527H15.9963C15.1197 36.1527 14.4079 35.4428 14.4041 34.5661C14.4004 33.6877 15.1122 32.9721 15.9906 32.9684L20.8045 32.9515H59.1693L63.7078 32.9684C64.5863 32.9721 65.2981 33.6877 65.2943 34.5661C65.2906 35.4428 64.5788 36.1527 63.7022 36.1527H63.7041Z" fill="#1B115C"/>
<path d="M55.337 55.7996H53.4189C52.5396 55.7996 51.8268 56.5124 51.8268 57.3917V62.1849C51.8268 63.0643 52.5396 63.7771 53.4189 63.7771H55.337C56.2163 63.7771 56.9291 63.0643 56.9291 62.1849V57.3917C56.9291 56.5124 56.2163 55.7996 55.337 55.7996Z" fill="#1B115C"/>
<path d="M26.5662 55.7996H24.6481C23.7688 55.7996 23.056 56.5124 23.056 57.3917V62.1849C23.056 63.0643 23.7688 63.7771 24.6481 63.7771H26.5662C27.4455 63.7771 28.1583 63.0643 28.1583 62.1849V57.3917C28.1583 56.5124 27.4455 55.7996 26.5662 55.7996Z" fill="#1B115C"/>
<path d="M59.1711 50.5212C58.2926 50.5212 57.579 49.8075 57.579 48.929V39.7153L55.7902 36.1376H24.2004L22.4022 39.8052V48.9309C22.4022 49.8094 21.6886 50.523 20.8101 50.523C19.9316 50.523 19.218 49.8094 19.218 48.9309V39.4362C19.218 39.1927 19.2741 38.9529 19.3809 38.7356L21.7785 33.845C22.0463 33.2999 22.6008 32.9534 23.2077 32.9534H56.7736C57.3767 32.9534 57.9274 33.2943 58.1971 33.8337L60.5947 38.627C60.7052 38.848 60.7633 39.0915 60.7633 39.3388V48.929C60.7633 49.8075 60.0496 50.5212 59.1711 50.5212Z" fill="#1B115C"/>
<path d="M63.0709 64.7005H16.8672C15.9888 64.7005 15.2751 63.9869 15.2751 63.1084C15.2751 62.2299 15.9888 61.5162 16.8672 61.5162H63.0691C63.9476 61.5162 64.6612 62.2299 64.6612 63.1084C64.6612 63.9869 63.9476 64.7005 63.0691 64.7005H63.0709Z" fill="#1B115C"/>
<path d="M40 79.9981C17.9443 79.9981 0 62.0538 0 40C0 17.9461 17.9443 0 40 0C62.0557 0 80 17.9443 80 40C80 62.0557 62.0557 80 40 80V79.9981ZM40 3.18427C19.6994 3.18427 3.18427 19.6994 3.18427 40C3.18427 60.3006 19.6994 76.8157 40 76.8157C60.3006 76.8157 76.8157 60.3006 76.8157 40C76.8157 19.6994 60.2988 3.18427 40 3.18427Z" fill="#1B115C"/>
<path d="M59.1711 50.5212C58.2926 50.5212 57.579 49.8076 57.579 48.9291V39.7153L55.35 35.2573C55.2395 35.0363 55.1814 34.7928 55.1814 34.5456V30.3835C55.1814 23.3294 48.3671 17.5903 39.9906 17.5903C31.6141 17.5903 24.7998 23.3294 24.7998 30.3835V34.5456C24.7998 34.7891 24.7436 35.0288 24.6368 35.2461L22.4022 39.8052V48.9309C22.4022 49.8094 21.6886 50.5231 20.8101 50.5231C19.9316 50.5231 19.218 49.8094 19.218 48.9309V39.4362C19.218 39.1927 19.2741 38.953 19.3809 38.7357L21.6155 34.1766V30.3835C21.6155 21.5744 29.859 14.406 39.9906 14.406C50.1222 14.406 58.3657 21.5725 58.3657 30.3835V34.1691L60.5947 38.627C60.7052 38.8481 60.7633 39.0916 60.7633 39.3388V48.9291C60.7633 49.8076 60.0496 50.5212 59.1711 50.5212Z" fill="#1B115C"/>
</svg>
