<svg width="80" height="80" viewBox="0 0 80 80" fill="none" xmlns="http://www.w3.org/2000/svg">
<path d="M40 80C17.9442 80 0 62.0562 0 39.9991C0 17.9419 17.9442 0 40 0C62.0558 0 80 17.9437 80 39.9991C80 62.0544 62.0558 79.9981 40 79.9981V80ZM40 3.19017C19.7026 3.19017 3.19024 19.7021 3.19024 39.9991C3.19024 60.296 19.7026 76.808 40 76.808C60.2974 76.808 76.8098 60.296 76.8098 39.9991C76.8098 19.7021 60.2974 3.19017 40 3.19017Z" fill="#1B115C"/>
<path d="M30.3936 64.7924C30.0427 64.7924 29.6974 64.6761 29.414 64.4565C29.0255 64.1544 28.7985 63.689 28.7985 63.1973V60.0335C28.7985 59.615 28.9636 59.2134 29.2564 58.915L35.0194 53.0545V42.9435L18.2894 45.7903C17.8259 45.8691 17.3511 45.7396 16.9927 45.4375C16.6343 45.1335 16.426 44.6888 16.426 44.2177V37.8918C16.426 37.2932 16.7619 36.7434 17.2967 36.4713L35.0194 27.4262V15.7502C35.0194 13.1267 37.1306 10.9912 39.726 10.9912C40.6061 10.9912 41.3211 11.7062 41.3211 12.5863C41.3211 13.4664 40.6061 14.1814 39.726 14.1814C38.8909 14.1814 38.2097 14.8851 38.2097 15.7502V28.4039C38.2097 29.0025 37.8738 29.5524 37.3389 29.8245L19.6162 38.8695V42.3299L36.3462 39.4832C36.8097 39.4043 37.2845 39.5338 37.643 39.8359C38.0014 40.14 38.2097 40.5847 38.2097 41.0557V53.7094C38.2097 54.1279 38.0445 54.5295 37.7518 54.8279L31.9887 60.6884V61.1481L39.6078 59.2115C40.4616 58.9938 41.3305 59.5099 41.5463 60.3637C41.764 61.2176 41.2479 62.0864 40.3941 62.3022L30.7858 64.7455C30.6563 64.7793 30.5231 64.7943 30.3936 64.7943V64.7924Z" fill="#1B115C"/>
<path d="M49.6083 64.7924C49.4769 64.7924 49.3456 64.7755 49.2161 64.7436L39.6078 62.3003C38.754 62.0826 38.2379 61.2156 38.4556 60.3618C38.6733 59.5079 39.5403 58.9919 40.3941 59.2096L48.0132 61.1462V60.6864L42.2501 54.8259C41.9573 54.5275 41.7922 54.1259 41.7922 53.7075V41.0538C41.7922 40.5846 41.9986 40.138 42.3589 39.834C42.7174 39.5319 43.1921 39.4005 43.6557 39.4812L60.3857 42.328V38.8676L42.6629 29.8225C42.1281 29.5504 41.7922 29.0006 41.7922 28.4019V15.7482C41.7922 14.8831 41.1129 14.1794 40.2759 14.1794C39.3958 14.1794 38.6808 13.4645 38.6808 12.5843C38.6808 11.7042 39.3958 10.9893 40.2759 10.9893C42.8712 10.9893 44.9824 13.1248 44.9824 15.7482V27.4242L62.7052 36.4693C63.24 36.7414 63.5759 37.2912 63.5759 37.8899V44.2158C63.5759 44.6849 63.3695 45.1315 63.0092 45.4356C62.6507 45.7377 62.176 45.8672 61.7124 45.7883L44.9824 42.9416V53.0525L50.7455 58.9131C51.0383 59.2114 51.2034 59.613 51.2034 60.0315V63.1954C51.2034 63.6871 50.9763 64.1525 50.5879 64.4546C50.3045 64.6741 49.9592 64.7905 49.6083 64.7905V64.7924Z" fill="#1B115C"/>
</svg>
