<svg width="40" height="49" fill="none" xmlns="http://www.w3.org/2000/svg"><path d="M39.243 48.594H21.34V44.46c0-4.43 3.593-8.336 8.03-8.336h1.866c4.436 0 8.029 3.906 8.029 8.336l-.02 4.134z" fill="#D40E14"/><path d="M30.291 38.08c3.226 0 5.841-2.634 5.841-5.884 0-3.25-2.615-5.884-5.84-5.884-3.226 0-5.841 2.634-5.841 5.884 0 3.25 2.615 5.885 5.84 5.885z" fill="#092A5E"/><path d="M18.854 48.594H.95V44.46c0-4.43 3.593-8.336 8.029-8.336h1.867c4.435 0 8.028 3.906 8.028 8.336l-.02 4.134z" fill="#D40E14"/><path d="M9.902 38.08c3.226 0 5.84-2.634 5.84-5.884 0-3.25-2.614-5.884-5.84-5.884-3.225 0-5.84 2.634-5.84 5.884 0 3.25 2.615 5.885 5.84 5.885z" fill="#092A5E"/><path d="M31.118 48.587H9.071v-4.965c0-5.32 4.424-10.01 9.886-10.01h2.3c5.462 0 9.886 4.69 9.886 10.01l-.025 4.965z" fill="#70CBF4"/><path d="M20.094 36.087c3.943 0 7.139-3.22 7.139-7.193 0-3.972-3.196-7.192-7.139-7.192-3.942 0-7.138 3.22-7.138 7.192 0 3.973 3.196 7.193 7.138 7.193z" fill="#C2E6FA"/><path d="M38.375 11.402V3.125c0-1.193-.96-2.16-2.144-2.16H3.982c-1.185 0-2.146.97-2.144 2.164l.013 8.864a2.152 2.152 0 002.144 2.157h22.813c.27 1.08 1.526 4.997 5.723 6.256 0 0-.643-3.629.384-6.256h2.732a2.738 2.738 0 002.728-2.748z" fill="#70CBF4"/><path d="M18.877 6.245l1.23-2.51 1.23 2.51 2.75.403-1.99 1.955.47 2.76-2.46-1.303-2.46 1.303.47-2.76-1.99-1.955 2.75-.403zM29.693 6.245l1.23-2.51 1.23 2.51 2.75.403-1.99 1.955.47 2.76-2.46-1.303-2.46 1.303.47-2.76-1.99-1.955 2.75-.403zM8.061 6.245l1.23-2.51 1.23 2.51 2.75.403-1.99 1.955.47 2.76-2.46-1.303-2.46 1.303.47-2.76-1.99-1.955 2.75-.403z" fill="#092A5E"/></svg>