<svg width="46" height="46" fill="none" xmlns="http://www.w3.org/2000/svg"><path d="M14.132 26.697H7.476a1.958 1.958 0 00-1.958 1.958v14.803c0 1.081.877 1.958 1.958 1.958h6.656a1.958 1.958 0 001.958-1.958V28.655a1.958 1.958 0 00-1.958-1.958zM28.486 19.908H21.83a1.958 1.958 0 00-1.958 1.957v21.593c0 1.08.877 1.957 1.958 1.957h6.656a1.958 1.958 0 001.958-1.957V21.865a1.958 1.958 0 00-1.958-1.957zM42.84 13.119h-6.656a1.958 1.958 0 00-1.958 1.957v28.382c0 1.08.877 1.957 1.958 1.957h6.656a1.958 1.958 0 001.958-1.957V15.076a1.958 1.958 0 00-1.958-1.957z" fill="#70CBF4"/><path d="M44.693.97l-6.724.877 1.625 2.174-5.758 4.305-3.029-2.67a1.455 1.455 0 00-1.833-.074L16.095 15.21l-3.012-2.257a1.455 1.455 0 00-1.744 0L.962 20.712l1.742 2.33 9.505-7.107 3.013 2.257a1.455 1.455 0 001.744 0L29.769 8.62l3.03 2.67a1.455 1.455 0 001.832.074l6.705-5.013 1.627 2.176 2.742-6.204A.97.97 0 0044.693.97z" fill="#D40E14"/></svg>