<svg width="40" height="49" fill="none" xmlns="http://www.w3.org/2000/svg"><path d="M36.44 49H3.56A3.151 3.151 0 01.4 45.858V5.305a3.151 3.151 0 013.16-3.142h32.88a3.151 3.151 0 013.16 3.142v40.553A3.151 3.151 0 0136.44 49z" fill="#092A5E"/><path d="M3.673 43.59V7.573c0-1.19.97-2.155 2.169-2.155h28.316c1.198 0 2.169.964 2.169 2.155V43.59c0 1.19-.97 2.155-2.169 2.155H5.842a2.162 2.162 0 01-2.169-2.155z" fill="#E8EDF2"/><path d="M29.237 7.742H10.763a2.537 2.537 0 01-2.545-2.53V2.53c0-1.397 1.14-2.53 2.545-2.53h18.475a2.537 2.537 0 012.544 2.53v2.682c0 1.397-1.139 2.53-2.545 2.53z" fill="#D40E14"/><path d="M13.72 19.537H8.203a1.429 1.429 0 01-1.432-1.424v-5.482c0-.786.641-1.424 1.432-1.424h5.515c.791 0 1.433.638 1.433 1.424v5.482c0 .787-.642 1.424-1.433 1.424z" fill="#092A5E"/><path d="M10.664 17.78a.746.746 0 01-.582-.278l-1.44-1.797a.736.736 0 01.119-1.04.747.747 0 011.045.119l.75.935 1.398-2.487a.746.746 0 011.012-.285c.359.2.487.65.287 1.006l-1.94 3.449a.744.744 0 01-.649.379zM28.517 14.331h-9.97a.742.742 0 01-.744-.74c0-.407.334-.739.744-.739h9.97c.411 0 .744.332.744.74s-.333.74-.744.74zM31.782 17.632H18.547a.742.742 0 01-.744-.74c0-.408.334-.739.744-.739h13.235c.411 0 .744.331.744.74 0 .408-.333.74-.744.74z" fill="#70CBF4"/><path d="M13.72 31.067H8.203a1.429 1.429 0 01-1.432-1.424V24.16c0-.787.641-1.424 1.432-1.424h5.515c.791 0 1.433.638 1.433 1.424v5.482c0 .786-.642 1.424-1.433 1.424z" fill="#092A5E"/><path d="M10.664 29.31a.746.746 0 01-.582-.278l-1.44-1.797a.736.736 0 01.119-1.04.747.747 0 011.045.119l.75.935 1.398-2.487a.746.746 0 011.012-.285c.359.2.487.65.287 1.006l-1.94 3.45a.744.744 0 01-.649.378zM28.517 25.862h-9.97a.742.742 0 01-.744-.74c0-.408.334-.739.744-.739h9.97c.411 0 .744.331.744.74 0 .408-.333.74-.744.74zM31.782 29.162H18.547a.742.742 0 01-.744-.739c0-.408.334-.74.744-.74h13.235c.411 0 .744.332.744.74s-.333.74-.744.74z" fill="#70CBF4"/><path d="M13.72 42.597H8.203a1.429 1.429 0 01-1.432-1.424v-5.482c0-.786.641-1.424 1.432-1.424h5.515c.791 0 1.433.638 1.433 1.424v5.482c0 .787-.642 1.424-1.433 1.424z" fill="#092A5E"/><path d="M10.664 40.841a.746.746 0 01-.582-.279l-1.44-1.797a.736.736 0 01.119-1.039.747.747 0 011.045.118l.75.935 1.398-2.487a.746.746 0 011.012-.285c.359.2.487.65.287 1.007l-1.94 3.448a.744.744 0 01-.649.379zM28.517 37.392h-9.97a.742.742 0 01-.744-.739c0-.408.334-.74.744-.74h9.97c.411 0 .744.332.744.74s-.333.74-.744.74zM31.782 40.693H18.547a.742.742 0 01-.744-.74c0-.408.334-.739.744-.739h13.235c.411 0 .744.331.744.74 0 .408-.333.74-.744.74z" fill="#70CBF4"/></svg>