<svg width="54" height="54" fill="none" xmlns="http://www.w3.org/2000/svg"><path d="M48.906 24.905L17.079 43.67a2.286 2.286 0 01-3.125-.801L7.137 31.384a2.272 2.272 0 01.8-3.119L39.765 9.498a2.286 2.286 0 013.126.802l6.816 11.486a2.272 2.272 0 01-.8 3.119z" fill="#A3DEFF"/><path d="M39.764 9.5l-9.014 5.314 9.143 15.406 9.013-5.315a2.271 2.271 0 00.8-3.117L42.89 10.302a2.287 2.287 0 00-3.126-.803z" fill="#A3DEFF"/><path d="M36.168 23.942l3.725 6.277 9.013-5.314a2.271 2.271 0 00.8-3.118l-2.562-4.317-10.976 6.472z" fill="#D40E14"/><path d="M43.899 20.992L15.874 45.08a2.286 2.286 0 01-3.218-.238L3.922 34.74a2.272 2.272 0 01.239-3.21L32.186 7.441a2.286 2.286 0 013.218.237l8.733 10.102c.824.952.717 2.39-.238 3.21z" fill="#C2E6FA"/><path d="M32.185 7.443l-7.937 6.822 6.941 8.028 12.71-1.301a2.271 2.271 0 00.239-3.21L35.404 7.68a2.287 2.287 0 00-3.219-.237zM28.154 24.9a.643.643 0 00-.905-.068l-15.124 13a.642.642 0 00.837.974l15.124-13c.27-.23.3-.636.069-.905zM25.633 31.674a.643.643 0 00-.906-.069L14.41 40.474a.642.642 0 00.838.974l10.318-8.868a.643.643 0 00.068-.906zM18.181 28.866a.64.64 0 00.906.069l6.714-5.771a.642.642 0 00-.837-.974l-6.714 5.77a.643.643 0 00-.069.906z" fill="#092A5E"/><path d="M14.322 32.184l-2.544 2.187a2.01 2.01 0 01-2.828-.209c-.724-.837-.63-2.1.21-2.822l2.543-2.186a2.01 2.01 0 012.829.209c.723.836.63 2.1-.21 2.822zM31.19 22.292l4.772 5.52 7.937-6.821a2.271 2.271 0 00.239-3.21l-3.283-3.797-9.666 8.308z" fill="#E2F3FE"/><path d="M34.13 10.369a.643.643 0 00-.907-.069l-4.56 3.92a.643.643 0 00.837.975l4.56-3.92c.27-.232.3-.637.07-.906zM34.604 13.769a.643.643 0 00-.906-.069l-3.147 2.706a.643.643 0 00.837.974l3.148-2.705c.269-.232.3-.637.068-.906z" fill="#C2E6FA"/><path d="M37.007 23.352l-1.241-1.436a.642.642 0 10-.972.841l1.24 1.435a.642.642 0 10.972-.84zM38.68 21.916l-1.242-1.436a.642.642 0 10-.972.84l1.241 1.436a.64.64 0 00.906.066.643.643 0 00.066-.906zM40.351 20.478l-1.24-1.436a.643.643 0 00-.973.84l1.241 1.436a.64.64 0 00.906.066.642.642 0 00.066-.906zM42.024 19.041l-1.241-1.436a.642.642 0 10-.972.84l1.24 1.436a.64.64 0 00.907.066.642.642 0 00.066-.906z" fill="#092A5E"/></svg>