<svg width="44" height="44" fill="none" xmlns="http://www.w3.org/2000/svg"><path d="M22.232 31.209a1.424 1.424 0 100-2.848 1.424 1.424 0 000 2.848zM22.232 16.103a1.424 1.424 0 100-2.848 1.424 1.424 0 000 2.848z" fill="#092A5E"/><path d="M42.36 2.106A3.888 3.888 0 0039.59.958H24.674c-1.047 0-2.03.408-2.77 1.148L2.106 21.904a3.891 3.891 0 00-1.148 2.77 3.89 3.89 0 001.148 2.77L17.02 42.358a3.89 3.89 0 002.77 1.148c1.046 0 2.03-.408 2.77-1.148l19.798-19.798a3.891 3.891 0 001.148-2.77V4.875c0-1.047-.408-2.03-1.147-2.769zm-20.128 8.656a3.921 3.921 0 013.917 3.917 3.921 3.921 0 01-3.917 3.917 3.921 3.921 0 01-3.916-3.917 3.921 3.921 0 013.916-3.917zm0 22.94a3.921 3.921 0 01-3.916-3.916 3.921 3.921 0 013.916-3.917 3.921 3.921 0 013.917 3.916 3.921 3.921 0 01-3.917 3.917zm8.011-10.223H14.221a1.247 1.247 0 010-2.493h16.022a1.247 1.247 0 110 2.493zm5.341-13.352a1.247 1.247 0 11.001-2.494 1.247 1.247 0 010 2.494z" fill="#092A5E"/></svg>