<svg width="41" height="44" fill="none" xmlns="http://www.w3.org/2000/svg"><path d="M2.34 13.62C2.34 6.099 8.775 0 16.716 0l1.513.757v2.27h-1.514c-6.268 0-11.35 4.743-11.35 10.594v1.513H2.339v-1.513zM38.66 13.62C38.66 6.099 32.225 0 24.285 0L22.77.757v2.27h1.514c6.268 0 11.35 4.743 11.35 10.594v1.513h3.027v-1.513z" fill="#092A5E"/><path d="M5.366 37.835v4.54c0 .836.677 1.514 1.513 1.514h4.54v-6.054H5.366zM35.634 37.835v4.54c0 .836-.677 1.514-1.513 1.514h-4.54v-6.054h6.053z" fill="#DCDCDC"/><path d="M9.906 40.703A4.16 4.16 0 014.61 36.7a4.16 4.16 0 014.162-4.162c1.294 0 2.444.583 3.2 1.506l-2.065 6.659zM29.028 34.044a4.118 4.118 0 013.201-1.506 4.16 4.16 0 014.162 4.162 4.16 4.16 0 01-5.297 4.003l-2.066-6.66z" fill="#B8B8B8"/><path d="M16.716 27.998h7.567v5.297h-7.567v-5.297z" fill="#DCDCDC"/><path d="M26.554 9.08a8.32 8.32 0 018.323 8.324l.757 1.514-.757 1.513a8.32 8.32 0 01-8.323 8.324H14.446a8.319 8.319 0 01-8.323-8.324l-.757-1.513.757-1.514c0-4.6 3.723-8.323 8.323-8.323h12.108z" fill="#F3EFEC"/><path d="M26.554 13.62H14.446a5.297 5.297 0 100 10.595h12.108a5.297 5.297 0 000-10.594z" fill="#092A5E"/><path d="M15.96 32.538h9.08a6.057 6.057 0 016.054 6.054v3.783c0 .836-.678 1.514-1.514 1.514H11.42a1.514 1.514 0 01-1.514-1.514v-3.783a6.057 6.057 0 016.054-6.054z" fill="#F3EFEC"/><path d="M25.131 12.611c.644-.872 1.42-2.198 1.423-3.524a1.518 1.518 0 00-1.514-1.52H15.96c-.836 0-1.515.684-1.513 1.52.002 1.327.778 2.653 1.422 3.524a2.51 2.51 0 002.024 1.01h5.214a2.51 2.51 0 002.025-1.01z" fill="#B8B8B8"/><path d="M14.446 20.431a1.513 1.513 0 100-3.027 1.513 1.513 0 000 3.027zM26.554 20.431a1.513 1.513 0 100-3.027 1.513 1.513 0 000 3.027z" fill="#70CBF4"/><path d="M16.716 0h7.567v3.027a.757.757 0 01-.756.757h-6.054a.757.757 0 01-.756-.757V0z" fill="#092A5E"/><path d="M35.634 29.512h-4.54v-1.514h4.54a.757.757 0 00.757-.756v-4.54h1.513v4.54a2.273 2.273 0 01-2.27 2.27z" fill="#CED7DD"/><path d="M38.66 24.214h-3.026a.757.757 0 01-.757-.756v-9.08c0-.418.34-.758.757-.758h3.027a2.27 2.27 0 012.27 2.27v6.054a2.271 2.271 0 01-2.27 2.27z" fill="#092A5E"/><path d="M29.58 27.241h2.27c.418 0 .757.34.757.757v1.513a.757.757 0 01-.756.757h-2.27a1.514 1.514 0 010-3.027z" fill="#D40E14"/><path d="M2.34 13.62h3.026c.418 0 .757.34.757.757v9.08a.757.757 0 01-.757.758H2.339a2.27 2.27 0 01-2.27-2.27V15.89a2.27 2.27 0 012.27-2.27z" fill="#092A5E"/></svg>