<svg width="43" height="48" fill="none" xmlns="http://www.w3.org/2000/svg"><path d="M21.436 0l.968 11.172-.968 11.97H3.972c-.766 0-1.387-.596-1.387-1.332v-3.698C2.585 8.125 11.04 0 21.435 0z" fill="#70CBF4"/><path d="M21.436 0v23.143h17.463c.766 0 1.387-.597 1.387-1.333v-3.698C40.286 8.125 31.83 0 21.436 0z" fill="#70CBF4"/><path d="M21.436 28.05H2.106A13.598 13.598 0 00.528 31.87c-.586 2.388-.786 6.077 1.52 10.192h19.389V28.05z" fill="#092A5E"/><path d="M21.436 28.05h19.247c.436.71 1.144 2.044 1.58 3.819.586 2.388.786 6.077-1.52 10.192H21.436V28.05z" fill="#092A5E"/><path d="M7.077 37.13c-3.395.892-5.766 3.878-5.766 7.259v1.845c0 .771.65 1.396 1.453 1.396h11.13l-.834-5.303-3.002-5.981-2.981.784z" fill="#70CBF4"/><path d="M21.436 34.38h-3.9l-7.478 1.966 3.836 11.284h7.542l.968-6.245-.968-7.006z" fill="#fff"/><path d="M25.335 34.38h-3.9v13.25h7.543l2.713-5.135 1.122-6.15-7.478-1.966z" fill="#fff"/><path d="M35.794 37.13l-2.981-.784-3.836 11.284h11.13c.803 0 1.453-.625 1.453-1.396V44.39c0-3.381-2.371-6.367-5.766-7.26z" fill="#70CBF4"/><path d="M21.436 5.333l.886 8.905-.886 8.905H9.522c-.766 0-1.387-.597-1.387-1.333v-3.698c0-7.046 5.966-12.779 13.3-12.779z" fill="#092A5E"/><path d="M21.436 5.333v17.81h11.913c.766 0 1.387-.597 1.387-1.333v-3.698c0-7.046-5.966-12.779-13.3-12.779z" fill="#092A5E"/><path d="M21.436 16.81C16.595 18.9 8.966 19 8.966 19v5.74c0 6.595 5.602 11.943 12.47 11.965l.968-10.914-.968-8.98z" fill="#FAD7D8"/><path d="M25.545 15.72a1.485 1.485 0 00-1.98-.133c-.6.47-1.327.874-2.13 1.224v19.894c6.887 0 12.47-5.357 12.47-11.965V19s-5.148.081-8.36-3.28z" fill="#FAD7D8"/><path d="M21.436 26.441c-.654 0-1.266-.25-1.723-.705a1.494 1.494 0 00-2.053-.035 1.357 1.357 0 00-.037 1.973 5.362 5.362 0 003.813 1.558l.969-1.3-.969-1.49z" fill="#fff"/><path d="M25.212 25.7a1.494 1.494 0 00-2.054.036 2.423 2.423 0 01-1.722.705v2.791c1.45 0 2.803-.553 3.812-1.558a1.357 1.357 0 00-.036-1.973z" fill="#fff"/><path d="M4.503 17.245C2.02 17.245 0 19.185 0 21.571v3.916c0 2.385 2.02 4.326 4.503 4.326h1.715l.968-6.284-.968-6.284H4.503z" fill="#D40E14"/><path d="M10.419 28.418V18.64c0-.771-.65-1.396-1.452-1.396h-2.75v12.568h2.75c.802 0 1.452-.625 1.452-1.395z" fill="#fff"/><path d="M35.774 28.604v3.468c0 1.3-1.1 2.358-2.454 2.358h-8.13v2.79h8.13c2.955 0 5.359-2.309 5.359-5.148v-3.469h-2.905z" fill="#E2F3FE"/><path d="M19.534 32.857c-1.73 0-3.134 1.349-3.134 3.011 0 1.663 1.403 3.011 3.134 3.011h1.902l.886-2.925-.886-3.096h-1.902z" fill="#D40E14"/><path d="M23.337 32.857h-1.9v6.023h1.9c1.731 0 3.134-1.349 3.134-3.012s-1.403-3.01-3.134-3.01zM38.287 17.245c2.483 0 4.503 1.94 4.503 4.326v3.916c0 2.385-2.02 4.326-4.503 4.326h-1.715l-.968-6.284.968-6.284h1.715z" fill="#D40E14"/><path d="M32.37 28.418V18.64c0-.771.651-1.396 1.453-1.396h2.75v12.568h-2.75c-.802 0-1.452-.625-1.452-1.395z" fill="#fff"/></svg>