<svg width="45" height="45" fill="none" xmlns="http://www.w3.org/2000/svg"><path d="M37.52 9.721v22.292c0 .928-.75 1.687-1.686 1.687H2.644c-.927 0-1.686-.75-1.686-1.687V9.721l18.286-2.943L37.52 9.72z" fill="#E2F3FE"/><path d="M35.842 2.83H2.645c-.928 0-1.687.751-1.687 1.687v5.204H37.52V4.51c0-.928-.75-1.678-1.679-1.678z" fill="#D40E14"/><path d="M5.841 18.915h3.281c.473 0 .86.38.86.86v3.28c0 .473-.379.861-.86.861h-3.28a.858.858 0 01-.861-.86v-3.281a.87.87 0 01.86-.86zM13.677 18.915h3.28c.473 0 .861.38.861.86v3.28c0 .473-.38.861-.86.861h-3.281a.858.858 0 01-.86-.86v-3.281a.87.87 0 01.86-.86zM21.52 18.915h3.282c.472 0 .86.38.86.86v3.28c0 .473-.38.861-.86.861H21.52a.859.859 0 01-.86-.86v-3.281c0-.473.387-.86.86-.86zM29.356 18.915h3.281c.473 0 .86.38.86.86v3.28c0 .473-.379.861-.86.861h-3.28a.858.858 0 01-.861-.86v-3.281a.87.87 0 01.86-.86zM5.841 26.008h3.281c.473 0 .86.38.86.86v3.273c0 .472-.379.86-.86.86h-3.28a.859.859 0 01-.861-.86V26.86a.862.862 0 01.86-.852zM13.677 26.008h3.28c.473 0 .861.38.861.86v3.273c0 .472-.38.86-.86.86h-3.281a.859.859 0 01-.86-.86V26.86a.862.862 0 01.86-.852zM5.841 11.83h3.281c.473 0 .86.38.86.86v3.281c0 .473-.379.86-.86.86h-3.28a.859.859 0 01-.861-.86v-3.29a.862.862 0 01.86-.85zM13.677 11.83h3.28c.473 0 .861.38.861.86v3.281c0 .473-.38.86-.86.86h-3.281a.859.859 0 01-.86-.86v-3.29a.862.862 0 01.86-.85zM21.52 11.83h3.282c.472 0 .86.38.86.86v3.281c0 .473-.38.86-.86.86H21.52a.859.859 0 01-.86-.86v-3.29c0-.471.387-.85.86-.85zM29.356 11.83h3.281c.473 0 .86.38.86.86v3.281c0 .473-.379.86-.86.86h-3.28a.859.859 0 01-.861-.86v-3.29a.862.862 0 01.86-.85z" fill="#70CBF4"/><path d="M5.715.958c.742 0 1.35.607 1.35 1.35v1.138c0 .742-.608 1.35-1.35 1.35-.742 0-1.35-.608-1.35-1.35V2.308c0-.743.608-1.35 1.35-1.35zM12.48.958c.741 0 1.349.607 1.349 1.35v1.138c0 .742-.608 1.35-1.35 1.35-.742 0-1.35-.608-1.35-1.35V2.308c0-.743.608-1.35 1.35-1.35zM19.244.958c.742 0 1.349.607 1.349 1.35v1.138c0 .742-.607 1.35-1.35 1.35-.742 0-1.349-.608-1.349-1.35V2.308c0-.743.599-1.35 1.35-1.35zM26 .958c.742 0 1.349.607 1.349 1.35v1.138c0 .742-.607 1.35-1.35 1.35-.742 0-1.349-.608-1.349-1.35V2.308c0-.743.607-1.35 1.35-1.35zM32.764.958c.742 0 1.35.607 1.35 1.35v1.138c0 .742-.608 1.35-1.35 1.35-.742 0-1.35-.608-1.35-1.35V2.308c0-.743.608-1.35 1.35-1.35z" fill="#092A5E"/><path d="M15.263 30.52c-.296 0-.59-.109-.819-.337l-1.189-1.189a.32.32 0 010-.455l.439-.439a.32.32 0 01.455 0l.886.886a.32.32 0 00.455 0l3.028-3.028a.32.32 0 01.456 0l.438.438a.32.32 0 010 .456l-3.331 3.331a1.149 1.149 0 01-.818.338zM7.41 30.52c-.295 0-.59-.109-.818-.337l-1.19-1.189a.32.32 0 010-.455l.44-.439a.32.32 0 01.455 0l.885.886a.32.32 0 00.456 0l3.028-3.028a.32.32 0 01.455 0l.439.438a.32.32 0 010 .456l-3.332 3.331a1.149 1.149 0 01-.818.338z" fill="#3C9F54"/><path d="M26.742 25.105h1.678v5.684h-1.678v-5.684z" fill="url(#a)"/><path d="M26.742 25.105h1.678v5.684h-1.678v-5.684z" fill="#70CBF4"/><path d="M32.907 25.105h1.679v5.684h-1.679v-5.684z" fill="url(#b)"/><path d="M32.907 25.105h1.679v5.684h-1.679v-5.684z" fill="#70CBF4"/><path d="M27.526 22.584h6.284c.902 0 1.644.733 1.644 1.644 0 .903-.733 1.645-1.644 1.645h-6.284a1.647 1.647 0 01-1.645-1.645c0-.91.734-1.645 1.645-1.645z" fill="#C2E6FA"/><path d="M18.88 27.08h23.575c.928 0 1.687.758 1.687 1.686v13.2c0 .928-.76 1.687-1.687 1.687H18.88c-.928 0-1.687-.76-1.687-1.687v-13.2c0-.936.75-1.687 1.687-1.687z" fill="#092A5E"/><path d="M22.457 26.59h2.707c.372 0 .667.296.667.667v16.219a.662.662 0 01-.666.666h-2.708a.662.662 0 01-.666-.666v-16.22c0-.37.295-.666.666-.666zM36.171 26.59h2.708c.37 0 .666.296.666.667v16.219a.662.662 0 01-.666.666H36.17a.662.662 0 01-.666-.666v-16.22c0-.37.295-.666.666-.666z" fill="#C2E6FA"/><defs><linearGradient id="a" x1="26.894" y1="27.949" x2="28.224" y2="27.949" gradientUnits="userSpaceOnUse"><stop stop-color="#EAF6FF"/><stop offset=".265" stop-color="#E5F3FE"/><stop offset=".54" stop-color="#D9EDFE"/><stop offset=".818" stop-color="#C4E3FE"/><stop offset="1" stop-color="#B3DAFE"/></linearGradient><linearGradient id="b" x1="33.061" y1="27.949" x2="34.391" y2="27.949" gradientUnits="userSpaceOnUse"><stop stop-color="#EAF6FF"/><stop offset=".265" stop-color="#E5F3FE"/><stop offset=".54" stop-color="#D9EDFE"/><stop offset=".818" stop-color="#C4E3FE"/><stop offset="1" stop-color="#B3DAFE"/></linearGradient></defs></svg>