<svg width="64" height="64" fill="none" xmlns="http://www.w3.org/2000/svg"><path fill-rule="evenodd" clip-rule="evenodd" d="M32 2.562C15.742 2.562 2.562 15.742 2.562 32S15.742 61.438 32 61.438 61.438 48.258 61.438 32 48.258 2.562 32 2.562zM0 32C0 14.327 14.327 0 32 0c17.673 0 32 14.327 32 32 0 17.673-14.327 32-32 32C14.327 64 0 49.673 0 32z" fill="#1B115C"/><path fill-rule="evenodd" clip-rule="evenodd" d="M17.62 19.096c0-.708.574-1.281 1.282-1.281h25.71c.707 0 1.28.573 1.28 1.281v32.139c0 .707-.573 1.28-1.28 1.28h-25.71a1.281 1.281 0 01-1.282-1.28V19.096zm2.563 1.281v29.576H43.33V20.377H20.183z" fill="#1B115C"/><path fill-rule="evenodd" clip-rule="evenodd" d="M31.757 15.03a3.263 3.263 0 00-3.262 3.263h-2.362a5.625 5.625 0 0111.249 0H35.02a3.263 3.263 0 00-3.263-3.263zM26.593 28.737c0-.708.574-1.281 1.282-1.281h11.003a1.281 1.281 0 110 2.562H27.875a1.281 1.281 0 01-1.282-1.281zM26.593 35.165c0-.707.574-1.28 1.282-1.28h11.003a1.281 1.281 0 110 2.562H27.875a1.281 1.281 0 01-1.282-1.282zM26.593 41.593c0-.708.574-1.282 1.282-1.282h11.003a1.281 1.281 0 010 2.563H27.875a1.281 1.281 0 01-1.282-1.282z" fill="#1B115C"/><path d="M24.166 30.095a1.358 1.358 0 100-2.716 1.358 1.358 0 000 2.716zM24.166 36.523a1.358 1.358 0 100-2.716 1.358 1.358 0 000 2.716zM24.166 42.95a1.358 1.358 0 100-2.716 1.358 1.358 0 000 2.716z" fill="#1B115C"/></svg>