<svg width="64" height="64" fill="none" xmlns="http://www.w3.org/2000/svg"><g clip-path="url(#a)" fill="#1B115C"><path d="M24.898 35.221a2.104 2.104 0 100-4.207 2.104 2.104 0 000 4.207zM32 35.221a2.103 2.103 0 100-4.207 2.103 2.103 0 000 4.207zM39.104 35.221a2.104 2.104 0 100-4.207 2.104 2.104 0 000 4.207z"/><path d="M32 64C14.355 64 0 49.645 0 32S14.355 0 32 0s32 14.355 32 32-14.355 32-32 32zm0-61.448C15.762 2.552 2.552 15.762 2.552 32S15.762 61.448 32 61.448 61.448 48.238 61.448 32 48.238 2.552 32 2.552z"/><path d="M47.593 45.566H28.927a1.275 1.275 0 110-2.55h17.39V24.06H18.145v18.955h4.087a1.275 1.275 0 110 2.55h-5.364a1.275 1.275 0 01-1.275-1.274V22.784c0-.706.571-1.276 1.275-1.276h30.725c.705 0 1.275.572 1.275 1.276V44.29c0 .705-.572 1.275-1.275 1.275z"/><path d="M16.616 40.957h-.01c-4.062-.029-7.367-3.358-7.367-7.42 0-4.063 3.305-7.393 7.368-7.421a1.275 1.275 0 011.284 1.275v12.29a1.277 1.277 0 01-1.275 1.275zM15.34 28.85c-2.044.579-3.55 2.465-3.55 4.687 0 2.222 1.505 4.108 3.55 4.687V28.85zM47.678 40.957a1.277 1.277 0 01-1.275-1.275v-12.29c0-.34.135-.666.377-.904a1.3 1.3 0 01.907-.37c4.063.028 7.368 3.357 7.368 7.42s-3.305 7.392-7.368 7.42h-.009v-.001zm1.275-12.106v9.372c2.044-.579 3.55-2.465 3.55-4.687 0-2.222-1.505-4.108-3.55-4.687v.002zM32.231 14.841a4.353 4.353 0 01-4.348-4.348 4.353 4.353 0 014.348-4.348 4.353 4.353 0 014.348 4.348 4.353 4.353 0 01-4.348 4.348zm0-6.145a1.797 1.797 0 101.796 1.797 1.8 1.8 0 00-1.796-1.797z"/><path d="M32.231 24.059a1.275 1.275 0 01-1.275-1.275v-9.218a1.275 1.275 0 112.55 0v9.218c0 .705-.571 1.275-1.275 1.275zM25.855 54.784c-.524 0-.995-.32-1.187-.809l-3.623-9.218a1.276 1.276 0 012.375-.935l2.337 5.946 1.961-5.883a1.277 1.277 0 012.422.808l-3.073 9.217c-.17.51-.64.859-1.176.872h-.035l-.001.002z"/></g><defs><clipPath id="a"><path fill="#fff" d="M0 0H64V64H0z"/></clipPath></defs></svg>