<svg width="43" height="33" fill="none" xmlns="http://www.w3.org/2000/svg"><path d="M32.15 11.913v2.819a.655.655 0 11-1.311 0v-2.845l-8.523-4.544v7.389a.655.655 0 11-1.312 0V7.304l-5.867 3.127a47.246 47.246 0 01-2.806 3.757.659.659 0 01-1.01 0 48.129 48.129 0 01-2.937-3.954L4.614 8.11v16.2l6.556 3.685V19.67a.656.656 0 011.311 0v8.392l8.523-4.544V19.67a.656.656 0 011.312 0v3.848l8.523 4.544v-8.392a.656.656 0 011.311 0v8.326l6.556-3.684V8.228l-6.556 3.685zM8.22 17.702a2.294 2.294 0 110-4.59h.983a.655.655 0 110 1.312H8.22a.984.984 0 100 1.967h25.897a1.973 1.973 0 011.967 1.967v.655a.656.656 0 01-1.312 0v-.655a.657.657 0 00-.655-.656H8.22zm28.985 5.435a.661.661 0 010 .931.665.665 0 01-.931 0l-.846-.852-.846.852a.665.665 0 01-.93 0 .661.661 0 010-.93l.852-.847-.853-.845a.659.659 0 01.931-.931l.846.852.846-.852a.658.658 0 01.93.93l-.851.846.852.846z" fill="#70CBF4"/><path d="M42.312 2.059a.655.655 0 00-.649-.007L31.488 7.776 21.968 2.7a.642.642 0 00-.616 0l-3.626 1.934a8.75 8.75 0 01-1.245 3.593l4.87-2.596a.642.642 0 01.788.13l9.382 5.003 7.52-4.228a.64.64 0 01.649.006.647.647 0 01.328.564v17.584a.651.651 0 01-.335.57l-7.9 4.445c-.007.007-.02.007-.033.014a.628.628 0 01-.596-.007l-9.494-5.062-9.494 5.062a.659.659 0 01-.596.006c-.013-.006-.02-.006-.033-.013l-7.9-4.445a.65.65 0 01-.335-.57V7.048a.718.718 0 01.086-.38.655.655 0 01.891-.25l2.754 1.548a8.097 8.097 0 01-1.108-3.377v-.137l-4.268-2.4a.64.64 0 00-.65.007.647.647 0 00-.327.563v23.603a.65.65 0 00.334.57l10.49 5.901a.65.65 0 00.63.007l9.526-5.082 9.526 5.082a.654.654 0 00.63-.007l10.49-5.9a.65.65 0 00.334-.571V2.622a.647.647 0 00-.328-.563z" fill="#092A5E"/><path d="M11.826 5.9a1.311 1.311 0 100-2.622 1.311 1.311 0 000 2.623z" fill="#D40E14"/><path d="M11.826 0a4.594 4.594 0 00-4.59 4.59c.005.218.034.436.085.648.499 2.138 3.14 5.77 4.505 7.488 1.383-1.77 3.868-5.147 4.464-7.324.076-.264.118-.537.125-.813A4.595 4.595 0 0011.825 0zm0 7.212a2.623 2.623 0 110-5.245 2.623 2.623 0 010 5.245z" fill="#D40E14"/></svg>