<svg width="64" height="64" fill="none" xmlns="http://www.w3.org/2000/svg"><path d="M32 64C14.354 64 0 49.644 0 32S14.354 0 32 0s32 14.354 32 32-14.354 32-32 32zm0-61.45C15.761 2.55 2.55 15.762 2.55 32c0 16.239 13.212 29.45 29.45 29.45 16.239 0 29.45-13.212 29.45-29.45C61.45 15.761 48.238 2.55 32 2.55z" fill="#1B115C"/><path d="M23.257 51.5a1.274 1.274 0 01-1.134-1.854l18.435-36.184a1.274 1.274 0 112.271 1.158L24.395 50.804a1.274 1.274 0 01-1.138.696zM25.022 27.13c-4.091 0-7.42-3.328-7.42-7.419 0-4.09 3.329-7.42 7.42-7.42 4.09 0 7.419 3.33 7.419 7.42 0 4.091-3.329 7.42-7.42 7.42zm0-12.29a4.875 4.875 0 00-4.87 4.87 4.874 4.874 0 004.87 4.869 4.875 4.875 0 004.869-4.87 4.875 4.875 0 00-4.87-4.869zM39.5 51.71c-4.09 0-7.419-3.329-7.419-7.42 0-4.09 3.329-7.42 7.42-7.42 4.09 0 7.419 3.33 7.419 7.42 0 4.091-3.329 7.42-7.42 7.42zm0-12.29a4.875 4.875 0 00-4.869 4.869 4.875 4.875 0 004.87 4.87 4.875 4.875 0 004.869-4.87 4.875 4.875 0 00-4.87-4.87z" fill="#1B115C"/></svg>