<svg width="64" height="64" fill="none" xmlns="http://www.w3.org/2000/svg"><g clip-path="url(#a)" fill="#1B115C"><path d="M32 64C14.356 64 0 49.645 0 32 0 14.353 14.355 0 32 0c17.647 0 32.001 14.355 32.001 32 0 17.643-14.354 32-32 32zm0-61.404C15.788 2.596 2.598 15.786 2.598 32c0 16.214 13.19 29.405 29.404 29.405 16.213 0 29.403-13.191 29.403-29.405 0-16.213-13.191-29.403-29.403-29.403z"/><path d="M44.806 52.457H19.22c-.717 0-1.298-.58-1.298-1.298V12.793c0-.717.58-1.298 1.298-1.298h25.587a1.298 1.298 0 110 2.596 5.588 5.588 0 00-5.582 5.58 5.588 5.588 0 005.582 5.58c.718 0 1.299.581 1.299 1.299v24.612c0 .717-.581 1.298-1.299 1.298v-.003zm-24.288-2.596h22.99V27.74c-3.895-.624-6.881-4.005-6.881-8.073 0-2.155.837-4.118 2.205-5.58H20.517v35.773h.001z"/><path d="M29.354 31.05a7.527 7.527 0 01-6.509-3.768 1.273 1.273 0 112.21-1.27 4.97 4.97 0 004.297 2.489c1.883 0 3.635-.946 4.46-2.409a1.275 1.275 0 012.221 1.253c-1.29 2.286-3.85 3.706-6.68 3.706zM29.354 23.056a3.769 3.769 0 01-3.766-3.764 3.769 3.769 0 013.766-3.764 3.769 3.769 0 013.765 3.764 3.769 3.769 0 01-3.765 3.764zm0-4.98a1.217 1.217 0 100 2.43 1.217 1.217 0 000-2.43z"/><path d="M34.924 27.994c-.28 0-.562-.092-.797-.281a7.477 7.477 0 00-1.737-1.036 7.612 7.612 0 00-2.997-.606 7.524 7.524 0 00-4.66 1.583 1.276 1.276 0 01-1.567-2.012 10.186 10.186 0 016.225-2.12 10.1 10.1 0 016.33 2.202 1.275 1.275 0 01-.798 2.27h.001zM40.017 36.416H24.695a1.274 1.274 0 110-2.548h15.322a1.274 1.274 0 110 2.548zM40.017 41.782H24.695a1.274 1.274 0 110-2.549h15.322a1.274 1.274 0 110 2.549zM40.017 47.147H24.695a1.274 1.274 0 110-2.548h15.322a1.274 1.274 0 110 2.548zM44.806 27.82c-4.496 0-8.154-3.657-8.154-8.15 0-4.494 3.659-8.151 8.154-8.151s8.154 3.657 8.154 8.15c0 4.494-3.659 8.152-8.154 8.152zm0-13.754A5.611 5.611 0 0039.2 19.67a5.611 5.611 0 005.606 5.604 5.611 5.611 0 005.606-5.604 5.611 5.611 0 00-5.606-5.604z"/><path d="M43.682 23.384a2.035 2.035 0 01-1.448-.598l-1.566-1.566a1.274 1.274 0 011.802-1.8l1.212 1.21 3.462-3.46a1.274 1.274 0 011.802 1.8l-3.817 3.816c-.387.387-.9.598-1.447.598z"/></g><defs><clipPath id="a"><path fill="#fff" d="M0 0H64V64H0z"/></clipPath></defs></svg>